<mxfile host="app.diagrams.net" modified="2022-02-17T20:04:47.750Z" agent="5.0 (Windows NT 10.0; Win64; x64) AppleWebKit/537.36 (KHTML, like Gecko) Chrome/98.0.4758.82 Safari/537.36" etag="pDwU_ImDs6p4cbL-ARkQ" version="16.5.6" type="github">
  <diagram id="eUXah8DcGmbCCXtJsjQs" name="Page-1">
    <mxGraphModel dx="892" dy="1475" grid="1" gridSize="10" guides="1" tooltips="1" connect="1" arrows="1" fold="1" page="1" pageScale="1" pageWidth="850" pageHeight="1100" math="0" shadow="0">
      <root>
        <mxCell id="0" />
        <mxCell id="1" parent="0" />
        <mxCell id="i1_qdgGcEOw3BCc8qwj4-7" value="" style="ellipse;shape=cloud;whiteSpace=wrap;html=1;fillColor=#dae8fc;strokeColor=#6c8ebf;" vertex="1" parent="1">
          <mxGeometry x="180" y="-30" width="490" height="400" as="geometry" />
        </mxCell>
        <mxCell id="i1_qdgGcEOw3BCc8qwj4-1" value="&amp;nbsp;EC2" style="rounded=1;whiteSpace=wrap;html=1;fillColor=#f8cecc;strokeColor=#b85450;" vertex="1" parent="1">
          <mxGeometry x="460" y="110" width="120" height="140" as="geometry" />
        </mxCell>
        <mxCell id="i1_qdgGcEOw3BCc8qwj4-6" value="Private Subnet" style="text;html=1;align=center;verticalAlign=middle;resizable=0;points=[];autosize=1;strokeColor=none;fillColor=none;" vertex="1" parent="1">
          <mxGeometry x="470" y="80" width="90" height="20" as="geometry" />
        </mxCell>
        <mxCell id="i1_qdgGcEOw3BCc8qwj4-8" value="Virtual Private Cloud" style="text;html=1;align=center;verticalAlign=middle;resizable=0;points=[];autosize=1;strokeColor=none;fillColor=none;fontFamily=Verdana;fontStyle=1;fontColor=#000000;labelBorderColor=none;" vertex="1" parent="1">
          <mxGeometry x="310" y="40" width="160" height="20" as="geometry" />
        </mxCell>
        <mxCell id="i1_qdgGcEOw3BCc8qwj4-11" value="" style="fontColor=#0066CC;verticalAlign=top;verticalLabelPosition=bottom;labelPosition=center;align=center;html=1;outlineConnect=0;fillColor=#CCCCCC;strokeColor=#6881B3;gradientColor=none;gradientDirection=north;strokeWidth=2;shape=mxgraph.networks.pc;fontFamily=Verdana;" vertex="1" parent="1">
          <mxGeometry x="10" y="145" width="100" height="70" as="geometry" />
        </mxCell>
        <mxCell id="i1_qdgGcEOw3BCc8qwj4-10" value="Team" style="text;html=1;align=center;verticalAlign=middle;resizable=0;points=[];autosize=1;strokeColor=none;fillColor=none;fontFamily=Verdana;" vertex="1" parent="1">
          <mxGeometry x="40" y="160" width="50" height="20" as="geometry" />
        </mxCell>
        <mxCell id="i1_qdgGcEOw3BCc8qwj4-12" value="" style="sketch=0;pointerEvents=1;shadow=0;dashed=0;html=1;strokeColor=none;labelPosition=center;verticalLabelPosition=bottom;verticalAlign=top;outlineConnect=0;align=center;shape=mxgraph.office.security.lock_protected;fillColor=#2072B8;fontFamily=Verdana;" vertex="1" parent="1">
          <mxGeometry x="150" y="160" width="20" height="30" as="geometry" />
        </mxCell>
        <mxCell id="i1_qdgGcEOw3BCc8qwj4-22" value="" style="edgeStyle=orthogonalEdgeStyle;rounded=0;orthogonalLoop=1;jettySize=auto;html=1;fontFamily=Verdana;fontColor=#000000;" edge="1" parent="1" source="i1_qdgGcEOw3BCc8qwj4-13" target="i1_qdgGcEOw3BCc8qwj4-1">
          <mxGeometry relative="1" as="geometry" />
        </mxCell>
        <mxCell id="i1_qdgGcEOw3BCc8qwj4-13" value="&amp;nbsp;EC2&lt;br&gt;Bastion Host" style="rounded=1;whiteSpace=wrap;html=1;fillColor=#f8cecc;strokeColor=#b85450;" vertex="1" parent="1">
          <mxGeometry x="295" y="110" width="120" height="140" as="geometry" />
        </mxCell>
        <mxCell id="i1_qdgGcEOw3BCc8qwj4-14" value="" style="endArrow=classic;html=1;rounded=0;fontFamily=Verdana;" edge="1" parent="1">
          <mxGeometry width="50" height="50" relative="1" as="geometry">
            <mxPoint x="110" y="180" as="sourcePoint" />
            <mxPoint x="150" y="180" as="targetPoint" />
            <Array as="points">
              <mxPoint x="140" y="180" />
            </Array>
          </mxGeometry>
        </mxCell>
        <mxCell id="i1_qdgGcEOw3BCc8qwj4-15" value="" style="endArrow=classic;html=1;rounded=0;fontFamily=Verdana;" edge="1" parent="1">
          <mxGeometry width="50" height="50" relative="1" as="geometry">
            <mxPoint x="170" y="180" as="sourcePoint" />
            <mxPoint x="230" y="180" as="targetPoint" />
            <Array as="points">
              <mxPoint x="200" y="180" />
            </Array>
          </mxGeometry>
        </mxCell>
        <mxCell id="i1_qdgGcEOw3BCc8qwj4-16" value="Internet Gateway" style="text;html=1;align=center;verticalAlign=middle;resizable=0;points=[];autosize=1;strokeColor=none;fillColor=none;fontFamily=Verdana;" vertex="1" parent="1">
          <mxGeometry x="110" y="190" width="120" height="20" as="geometry" />
        </mxCell>
        <mxCell id="i1_qdgGcEOw3BCc8qwj4-23" value="" style="endArrow=none;dashed=1;html=1;dashPattern=1 3;strokeWidth=2;rounded=0;fontFamily=Verdana;fontColor=#000000;entryX=0.147;entryY=-0.009;entryDx=0;entryDy=0;entryPerimeter=0;exitX=0.187;exitY=0.996;exitDx=0;exitDy=0;exitPerimeter=0;" edge="1" parent="1" source="i1_qdgGcEOw3BCc8qwj4-13" target="i1_qdgGcEOw3BCc8qwj4-13">
          <mxGeometry width="50" height="50" relative="1" as="geometry">
            <mxPoint x="310" y="220" as="sourcePoint" />
            <mxPoint x="360" y="170" as="targetPoint" />
          </mxGeometry>
        </mxCell>
      </root>
    </mxGraphModel>
  </diagram>
</mxfile>
